<?xml version="1.0" standalone="no"?>
<!DOCTYPE svg PUBLIC "-//W3C//DTD SVG 20010904//EN"
 "http://www.w3.org/TR/2001/REC-SVG-20010904/DTD/svg10.dtd">
<svg version="1.0" xmlns="http://www.w3.org/2000/svg"
 width="450.000000pt" height="450.000000pt" viewBox="0 0 450.000000 450.000000"
 preserveAspectRatio="xMidYMid meet">
<metadata>
Created by potrace 1.11, written by Peter Selinger 2001-2013
</metadata>
<g transform="translate(0.000000,450.000000) scale(0.100000,-0.100000)"
fill="#000000" stroke="none">
<path d="M1064 3790 c-11 -4 -33 -22 -47 -40 -21 -25 -27 -42 -27 -80 l0 -48
-41 -7 c-23 -4 -55 -19 -72 -35 -28 -25 -32 -35 -33 -83 -2 -49 -6 -59 -34
-84 -25 -22 -33 -39 -37 -74 -10 -84 41 -139 127 -139 l40 0 0 -950 0 -950
-40 0 c-81 0 -130 -49 -130 -131 0 -34 6 -47 36 -77 32 -32 36 -42 38 -90 1
-47 5 -57 33 -82 17 -16 49 -31 72 -35 l41 -7 0 -49 c0 -42 5 -55 33 -85 80
-88 217 -27 217 97 0 34 3 37 35 43 69 13 125 89 110 149 -5 20 -1 29 18 42
14 9 33 34 41 56 31 77 -13 155 -93 166 -40 5 -41 7 -41 44 l0 39 955 0 955 0
0 -39 0 -39 -55 -4 c-63 -5 -98 -31 -115 -84 -15 -44 1 -94 41 -131 23 -22 28
-34 24 -54 -13 -57 35 -124 101 -140 41 -11 42 -12 46 -59 12 -122 140 -172
217 -84 26 29 31 43 31 83 l0 49 42 7 c29 5 53 18 76 41 30 30 33 39 31 82 -2
44 1 52 30 78 26 23 34 40 38 75 9 78 -28 125 -107 139 l-35 5 0 945 0 945 35
5 c79 14 116 61 107 139 -4 35 -12 52 -37 74 -28 25 -32 35 -34 84 -1 48 -5
58 -33 83 -17 16 -49 31 -72 35 l-41 7 0 49 c0 40 -5 54 -31 83 -77 88 -205
38 -217 -84 -4 -47 -5 -48 -46 -59 -66 -16 -114 -83 -101 -140 4 -20 -1 -32
-24 -54 -89 -84 -37 -217 85 -217 l44 0 0 -45 0 -45 -955 0 -955 0 0 44 c0 43
0 43 41 49 80 11 124 89 93 166 -8 22 -27 47 -40 56 -20 13 -24 22 -19 44 13
60 -34 125 -102 143 -41 10 -43 12 -43 47 0 95 -94 165 -176 131z m76 -90 c11
-11 20 -33 20 -50 0 -29 -2 -30 -45 -30 l-45 0 0 40 c0 27 6 42 18 49 24 15
29 14 52 -9z m2271 10 c14 -8 19 -21 19 -50 l0 -40 -45 0 c-43 0 -45 2 -45 28
0 29 24 72 41 72 6 0 19 -5 30 -10z m-2111 -200 c8 -14 8 -26 0 -40 -10 -19
-21 -20 -183 -20 -177 0 -197 4 -197 40 0 36 20 40 197 40 162 0 173 -1 183
-20z m2274 -2 c8 -13 8 -23 0 -35 -10 -16 -32 -18 -187 -21 -168 -2 -177 -2
-187 18 -8 14 -8 26 0 40 10 20 19 20 187 18 155 -3 177 -5 187 -20z m-2223
-148 c21 -12 25 -50 7 -68 -17 -17 -479 -17 -496 0 -17 17 -15 44 4 62 13 14
49 16 240 16 136 0 233 -4 245 -10z m2283 -6 c19 -18 21 -45 4 -62 -17 -17
-479 -17 -496 0 -18 18 -15 55 6 67 10 6 108 11 244 11 193 0 229 -2 242 -16z
m-2409 -1104 l0 -945 -102 -3 -103 -3 0 951 0 951 103 -3 102 -3 0 -945z
m2275 0 l0 -950 -100 0 -100 0 0 950 0 950 100 0 100 0 0 -950z m-282 708 l3
-68 -790 0 c-771 0 -791 0 -801 -19 -13 -25 -13 -27 6 -45 14 -14 100 -16 800
-16 l784 0 0 -675 0 -675 -955 0 -955 0 0 65 0 65 783 0 c596 0 786 3 795 12
18 18 14 46 -7 58 -13 7 -280 10 -795 10 l-776 0 0 680 0 680 953 -2 952 -3 3
-67z m-1851 -1765 c13 -19 12 -24 -6 -42 -20 -20 -32 -21 -247 -21 -136 0
-233 4 -245 10 -21 12 -25 50 -7 68 9 9 74 12 251 10 233 -3 240 -4 254 -25z
m2271 15 c18 -18 14 -56 -7 -68 -12 -6 -108 -10 -241 -10 -133 0 -229 4 -241
10 -21 12 -25 50 -7 68 17 17 479 17 496 0z m-2338 -178 c8 -14 8 -26 0 -40
-10 -19 -21 -20 -183 -20 -177 0 -197 4 -197 40 0 36 20 40 197 40 162 0 173
-1 183 -20z m2274 -2 c8 -13 8 -23 0 -35 -10 -16 -32 -18 -187 -21 -168 -2
-177 -2 -187 18 -8 14 -8 26 0 40 10 20 19 20 187 18 155 -3 177 -5 187 -20z
m-2414 -177 c0 -16 -8 -39 -19 -52 -16 -21 -22 -22 -45 -11 -22 10 -26 18 -26
52 l0 40 45 0 c43 0 45 -1 45 -29z m2270 -11 c0 -34 -4 -42 -26 -52 -23 -11
-29 -10 -45 11 -11 13 -19 36 -19 52 0 28 2 29 45 29 l45 0 0 -40z"/>
<path d="M2026 2564 c-18 -18 -20 -32 -6 -54 8 -13 45 -15 230 -15 185 0 222
2 230 15 14 22 12 36 -6 54 -13 14 -48 16 -224 16 -176 0 -211 -2 -224 -16z"/>
<path d="M1875 2293 c-64 -5 -84 -33 -49 -67 13 -14 66 -16 424 -16 358 0 411
2 424 16 18 18 20 32 6 54 -8 13 -62 15 -382 16 -205 0 -395 -1 -423 -3z"/>
<path d="M1672 1998 c-16 -16 -15 -33 4 -52 14 -14 80 -16 574 -16 494 0 560
2 574 16 19 19 20 36 4 52 -17 17 -1139 17 -1156 0z"/>
</g>
</svg>
